<svg height="511pt" viewBox="0 -35 511.99989 511" width="511pt" xmlns="http://www.w3.org/2000/svg"><path d="m282.953125 21.863281c-16.5 10.113281-37.40625 10.113281-53.90625 0-56.070313-34.363281-130.371094-27.273437-178.914063 21.273438-89.078124 89.078125-73.890624 230.5625 164.359376 385.894531 25.203124 16.429688 57.8125 16.429688 83.011718 0 238.253906-155.332031 253.441406-296.816406 164.363282-385.894531-48.546876-48.542969-122.847657-55.636719-178.914063-21.273438zm0 0" fill="#fd5c6f"/><path d="m151.5625 226.515625c-22.539062-48.515625 5.40625-105.585937 57.582031-117.402344 93.5-21.183593 103.726563-101.164062 103.726563-101.164062-10.355469 3.441406-20.398438 8.082031-29.917969 13.914062-16.5 10.113281-37.40625 10.113281-53.90625 0-56.070313-34.363281-130.371094-27.269531-178.914063 21.273438-89.078124 89.078125-73.890624 230.5625 164.359376 385.894531 25.203124 16.433594 57.8125 16.433594 83.011718 0 18.3125-11.9375 35.300782-23.789062 51.03125-35.546875-116.703125-48.816406-171.707031-112.578125-196.972656-166.96875zm0 0" fill="#f6334c"/><path d="m190.042969 229.519531c0-13.578125-13.824219-24.585937-30.875-24.585937-17.054688 0-30.878907 11.007812-30.878907 24.585937 0 13.582031 13.824219 24.589844 30.878907 24.589844 17.050781 0 30.875-11.007813 30.875-24.589844zm0 0" fill="#ffd2e3"/><path d="m383.710938 229.519531c0-13.578125-13.824219-24.585937-30.878907-24.585937-17.050781 0-30.878906 11.007812-30.878906 24.585937 0 13.582031 13.828125 24.589844 30.878906 24.589844 17.054688 0 30.878907-11.007813 30.878907-24.589844zm0 0" fill="#ffd2e3"/><g fill="#454545"><path d="m339.089844 216.023438c-4.265625 0-7.726563-3.457032-7.726563-7.726563v-12.828125c0-4.265625 3.460938-7.722656 7.726563-7.722656 4.269531 0 7.726562 3.457031 7.726562 7.722656v12.828125c0 4.269531-3.457031 7.726563-7.726562 7.726563zm0 0"/><path d="m172.910156 216.023438c-4.269531 0-7.726562-3.457032-7.726562-7.726563v-12.828125c0-4.265625 3.457031-7.722656 7.726562-7.722656 4.265625 0 7.722656 3.457031 7.722656 7.722656v12.828125c0 4.269531-3.457031 7.726563-7.722656 7.726563zm0 0"/><path d="m277.488281 223.292969c0-14.050781-9.621093-25.445313-21.488281-25.445313s-21.488281 11.394532-21.488281 25.445313 9.621093 25.441406 21.488281 25.441406 21.488281-11.390625 21.488281-25.441406zm0 0"/></g></svg>