<svg height="512pt" viewBox="0 -12 512 512" width="512pt" xmlns="http://www.w3.org/2000/svg"><path d="m440.96875 0h-369.9375c-39.230469 0-71.03125 31.800781-71.03125 71.03125v249.5c0 39.230469 31.800781 71.03125 71.03125 71.03125h81.203125c9.929687 0 19.273437 4.699219 25.191406 12.667969l53.539063 72.042969c12.472656 16.785156 37.597656 16.785156 50.070312 0l53.539063-72.042969c5.917969-7.96875 15.261719-12.667969 25.191406-12.667969h81.203125c39.230469 0 71.03125-31.800781 71.03125-71.03125v-249.5c0-39.230469-31.800781-71.03125-71.03125-71.03125zm0 0" fill="#f8e47c"/><path d="m418.6875 185.847656c8.859375-11.515625 11.46875-26.636718 6.976562-40.449218-4.488281-13.816407-15.484374-24.515626-29.417968-28.621094l-64.019532-18.871094c-.886718-.261719-1.660156-.824219-2.183593-1.585938l-37.730469-55.054687c-8.210938-11.984375-21.785156-19.136719-36.3125-19.136719s-28.101562 7.152344-36.3125 19.136719l-37.730469 55.054687c-.519531.761719-1.296875 1.324219-2.179687 1.585938l-28.285156 8.335938c-.207032-39.445313 4.523437-75.992188 14.539062-106.242188h-95c-39.230469 0-71.03125 31.800781-71.03125 71.03125v249.5c0 39.230469 31.800781 71.03125 71.03125 71.03125h81.203125c9.929687 0 19.273437 4.699219 25.191406 12.667969l53.539063 72.042969c12.472656 16.785156 37.597656 16.785156 50.070312 0l11.0625-14.886719c-34.402344-29.199219-63.003906-69.90625-85.238281-116.039063l47.796875-16.996094c.433594-.15625.882812-.234374 1.34375-.234374s.910156.078124 1.347656.234374l62.886719 22.363282c4.789063 1.703125 9.765625 2.566406 14.785156 2.566406 11.78125 0 23.285157-4.878906 31.558594-13.382812 8.332031-8.566407 12.742187-19.886719 12.410156-31.871094l-1.835937-66.722656c-.023438-.921876.273437-1.832032.832031-2.5625zm0 0" fill="#edd35f"/><path d="m247.953125 309.507812-62.890625 22.363282c-15.902344 5.65625-32.523438-6.421875-32.058594-23.292969l1.835938-66.71875c.152344-5.523437-1.605469-10.929687-4.976563-15.308594l-40.699219-52.902343c-10.292968-13.375-3.945312-32.914063 12.246094-37.6875l64.019532-18.871094c5.300781-1.5625 9.898437-4.90625 13.023437-9.460938l37.730469-55.058594c9.542968-13.921874 30.089844-13.921874 39.628906 0l37.734375 55.058594c3.125 4.558594 7.722656 7.898438 13.023437 9.460938l64.019532 18.871094c16.191406 4.773437 22.539062 24.3125 12.246094 37.6875l-40.699219 52.902343c-3.371094 4.378907-5.128907 9.785157-4.976563 15.308594l1.835938 66.71875c.464844 16.871094-16.15625 28.949219-32.058594 23.292969l-62.890625-22.363282c-5.203125-1.851562-10.890625-1.851562-16.09375 0zm0 0" fill="#fff"/><path d="m353.601562 324.417969c-86.109374-14.128907-174.488281-129.734375-142.765624-234.859375l-12.382813 18.070312c-3.121094 4.554688-7.722656 7.898438-13.019531 9.460938l-64.023438 18.871094c-16.1875 4.769531-22.539062 24.3125-12.246094 37.6875l40.703126 52.898437c3.367187 4.378906 5.125 9.789063 4.972656 15.308594l-1.835938 66.722656c-.464844 16.871094 16.160156 28.945313 32.0625 23.292969l62.886719-22.363282c5.207031-1.851562 10.890625-1.851562 16.097656 0l62.886719 22.363282c10.132812 3.605468 20.554688 0 26.664062-7.453125zm0 0" fill="#eeeeed"/><path d="m212.292969 194.683594c0-11.238282-11.441407-20.351563-25.554688-20.351563-14.117187 0-25.558593 9.113281-25.558593 20.351563 0 11.242187 11.441406 20.351562 25.558593 20.351562 14.113281 0 25.554688-9.109375 25.554688-20.351562zm0 0" fill="#eb8d9a"/><path d="m350.820312 194.683594c0-11.238282-11.441406-20.351563-25.558593-20.351563-14.113281 0-25.554688 9.113281-25.554688 20.351563 0 11.242187 11.441407 20.351562 25.554688 20.351562 14.117187 0 25.558593-9.109375 25.558593-20.351562zm0 0" fill="#eb8d9a"/><g fill="#495059"><path d="m213.796875 180.039062c-4.144531 0-7.5-3.359374-7.5-7.5 0-2.574218-2.09375-4.667968-4.664063-4.667968-2.574218 0-4.664062 2.09375-4.664062 4.667968 0 4.140626-3.359375 7.5-7.5 7.5-4.144531 0-7.5-3.359374-7.5-7.5 0-10.84375 8.820312-19.667968 19.664062-19.667968s19.664063 8.824218 19.664063 19.667968c0 4.140626-3.359375 7.5-7.5 7.5zm0 0"/><path d="m322.53125 180.039062c-4.140625 0-7.5-3.359374-7.5-7.5 0-2.574218-2.089844-4.667968-4.664062-4.667968-2.570313 0-4.664063 2.09375-4.664063 4.667968 0 4.140626-3.355469 7.5-7.5 7.5-4.140625 0-7.5-3.359374-7.5-7.5 0-10.84375 8.820313-19.667968 19.664063-19.667968s19.664062 8.824218 19.664062 19.667968c0 4.140626-3.355469 7.5-7.5 7.5zm0 0"/><path d="m256 200.132812c-7.113281 0-13.875-3.078124-18.558594-8.449218-2.71875-3.121094-2.394531-7.859375.726563-10.582032 3.121093-2.722656 7.859375-2.398437 10.582031.726563 1.832031 2.101563 4.472656 3.308594 7.25 3.308594 2.773438 0 5.417969-1.207031 7.25-3.308594 2.71875-3.121094 7.457031-3.445313 10.578125-.726563 3.125 2.722657 3.449219 7.460938.726563 10.582032-4.679688 5.371094-11.441407 8.449218-18.554688 8.449218zm0 0"/></g></svg>