<?xml version="1.0" encoding="iso-8859-1"?>
<!-- Generator: Adobe Illustrator 19.0.0, SVG Export Plug-In . SVG Version: 6.00 Build 0)  -->
<svg version="1.1" id="Capa_1" xmlns="http://www.w3.org/2000/svg" xmlns:xlink="http://www.w3.org/1999/xlink" x="0px" y="0px"
	 viewBox="0 0 512.001 512.001" style="enable-background:new 0 0 512.001 512.001;" xml:space="preserve">
<g>
	<g>
		<path d="M316.098,327.355H194.826c-10.842,0.001-17.814,11.496-12.822,21.102c3.304,6.361,7.304,12.143,12.136,17.536
			c0.343,0.738,0.802,1.426,1.379,2.027c38.015,39.666,105.813,33.923,134.908-15.589
			C336.952,341.331,328.965,327.355,316.098,327.355z M215.391,365.122c9.751-2.546,20.618-2.112,30.758,1.998
			c6.388,2.591,13.428,2.593,19.819,0c10.666-4.324,22.2-4.595,32.335-1.56C272.906,384.295,239.468,383.01,215.391,365.122z
			 M317.494,344.832c-1.967,3.347-4.218,6.513-6.711,9.477c-16.287-7.413-34.424-7.589-50.451-1.089
			c-8.641,3.5-13.194-5.632-35.644-4.605c-7.479,0.349-14.688,1.988-21.513,4.851c-2.907-3.556-5.266-7.076-7.429-11.109
			c127.847,0.289,120.877-0.729,121.761,0.815C317.723,343.551,317.897,344.147,317.494,344.832z"/>
	</g>
</g>
<g>
	<g>
		<path d="M242.821,284.863c-4.143,0-7.5,3.357-7.5,7.5v3.136c0,4.143,3.357,7.5,7.5,7.5s7.5-3.357,7.5-7.5v-3.136
			C250.321,288.221,246.964,284.863,242.821,284.863z"/>
	</g>
</g>
<g>
	<g>
		<path d="M268.703,284.862c-4.143,0-7.5,3.357-7.5,7.5v3.136c0,4.143,3.357,7.5,7.5,7.5s7.5-3.357,7.5-7.5v-3.136
			C276.204,288.22,272.847,284.862,268.703,284.862z"/>
	</g>
</g>
<g>
	<g>
		<path d="M455.642,370.711c11.043-18.44,17.366-38.984,18.334-59.699c0.96-20.582-1.093-41.255-6.009-61.399
			c26.256-10.168,44.035-35.599,44.035-64.229c0-43.627-40.29-76.501-83.218-67.377c-9.58-18.032-22.449-34.626-38.349-49.133
			c-3.058-2.792-7.803-2.574-10.596,0.485c-2.792,3.059-2.575,7.803,0.485,10.596c37.291,34.026,54.195,78.661,53.468,120.589
			c-0.078,5.61,28.195,45.619,25.199,109.769c-0.72,15.416-4.838,30.751-11.992,44.983l-39.012-69.589
			c15.072-23.422,17.938-48.471,7.907-71.807c-1.838-4.276-4.235-8.159-7.071-11.533c2.895-52.974-31.541-107.503-82.676-105.781
			c-28.703,0.95-43.496,21.136-48.032,24.372c-12.536,11.632-32.175,11.632-44.711,0c-4.32-2.8-24.428-30.611-62.788-23.206
			c-5.493,1.062-10.927,2.847-16.147,5.304c-3.748,1.765-5.355,6.233-3.592,9.981c1.765,3.749,6.234,5.352,9.981,3.592
			c18.183-8.563,38.792-6.526,54.089,7.667l8.255,7.658c18.257,16.94,46.861,16.94,65.116,0
			c5.443-3.979,20.114-25.197,49.739-19.476c33.897,6.553,54.099,43.55,55.786,78.738c-6.818-2.823-13.919-3.429-20.854-2.085
			c-14.18-19.718-36.752-40.913-61.09-41.042c-12.534,0-26.01,6.559-35.567,19.92c-26.731,37.667-4.038,102.352,14.1,127.032
			c9.485,12.937,21.848,22.436,37.201,26.633c2.796,6.391,33.261,76.024,38.026,86.916c-55.009,61.864-163.861,62.446-219.477,0.36
			c3.518-8.04,34.406-78.636,38.187-87.277c25.463-6.953,41.07-27.56,50.971-52.362c7.556-18.966,13.292-40.183,12.701-60.742
			c-1.492-58.302-57.39-91.244-109.029-19.438c-7.135-1.384-14.449-0.687-21.344,2.293c0.895-19.41,7.02-39.091,18.919-54.641
			c2.518-3.289,1.892-7.996-1.398-10.515c-3.289-2.52-7.997-1.892-10.515,1.398c-10.022,13.095-16.478,28.548-19.672,44.263
			c-3.429,16.858-2.256,30.296-2.276,30.988c-13.46,16.547-20.048,49.629,1.288,82.787l-39.264,70.038
			c-7.294-14.36-11.492-29.851-12.219-45.433c-1.726-36.943,7.012-73.625,24.32-106.143c1.097-2.062,0.85-3.539,0.85-5.697
			c0-132.018,157.975-210.882,275.771-138.685c3.529,2.162,8.148,1.057,10.314-2.476c2.164-3.531,1.057-8.149-2.476-10.314
			c-95.539-58.557-226.182-27.031-278.39,70.95C40.025,109.011,0,141.952,0,185.381c0,28.401,17.602,53.763,43.599,64.051
			c-4.949,20.201-7.018,40.936-6.054,61.577c0.975,20.873,7.385,41.56,18.583,60.111l-53.713,95.82
			c-6.772,12.082,1.487,27.482,15.09,27.482h73.072c11.065,0,21.214-6.854,25.854-17.462l3.506-8.012
			c1.66-3.795-0.07-8.218-3.865-9.879c-3.793-1.656-8.216,0.071-9.878,3.864l-3.506,8.014c-2.252,5.146-7.005,8.474-12.111,8.474
			H17.504c-1.821,0-3.307-2.821-2.005-5.145c11.841-21.12,96.738-172.56,98.373-175.476c13.258,15.223,31.409,24.904,53.098,25.221
			c-4.117,9.409-40.553,92.687-46.647,106.615c-1.66,3.794,0.07,8.218,3.865,9.878c3.795,1.66,8.217-0.069,9.878-3.865l5.586-12.769
			c61.423,62.131,171.72,61.667,232.549-0.339l23.372,53.42c4.641,10.607,14.789,17.461,25.854,17.461h73.071
			c13.63,0,21.849-15.424,15.09-27.483L455.642,370.711z M435.461,132.037c32.582-4.653,61.54,20.734,61.54,53.346
			c0,21.897-13.288,41.411-33.078,49.704c-0.951-2.99-1.969-5.971-3.05-8.932c15.888-6.976,26.727-22.966,26.727-40.771
			c0-26.188-22.591-46.726-48.631-44.294C437.885,138.041,436.717,135.022,435.461,132.037z M455.258,212.234
			c-1.993-4.517-4.139-8.983-6.437-13.391c0.106-13.426-1.64-28.456-5.344-42.937c16.09,0.197,29.122,13.342,29.122,29.478
			C472.598,197.043,465.582,207.526,455.258,212.234z M62.704,198.844c-2.261,4.337-4.375,8.733-6.342,13.177
			c-10.095-4.804-16.954-15.178-16.954-26.638c0-15.997,12.808-29.051,28.706-29.468C64.356,170.459,62.598,185.466,62.704,198.844z
			 M47.662,234.9c-19.541-8.4-32.657-27.832-32.657-49.516c0-32.412,28.662-57.818,61.165-53.398
			c-1.259,2.988-2.436,6.016-3.524,9.069c-25.966-2.194-48.239,18.363-48.239,44.328c0,17.894,10.476,33.58,26.305,40.612
			C49.63,228.948,48.613,231.919,47.662,234.9z M121.934,285.009c-15.348-19.475-21.997-42.032-12.045-65.184
			c6.902-16.053,20.262-16.279,20.363-16.326c-3.893,7.283-8.88,17.743-11.832,28.286c-1.338,4.783,2.264,9.525,7.227,9.525
			c3.279,0,6.291-2.167,7.219-5.479c3.13-11.179,10.045-25.126,15.677-34.065c9.585-15.063,28.586-34.836,46.412-38.147
			l-32.309,59.519c-1.976,3.641-0.627,8.193,3.014,10.171c3.655,1.984,8.202,0.609,10.171-3.014l35.056-64.581
			c5.325,2.622,9.515,6.608,12.957,11.562l-31.321,63.808c-2.465,5.023,1.245,10.808,6.727,10.808c2.771,0,5.436-1.542,6.738-4.197
			l25.542-52.037c5.089,23.299-2.962,52.38-12.626,74.093C198.345,315.878,151.229,322.294,121.934,285.009z M334.591,307.93
			c-4.942-2.71-29.222-1.531-47.223-52.791c-6.531-18.664-11.077-40.329-6.893-59.483l25.543,52.038
			c1.303,2.655,3.967,4.197,6.738,4.197c5.481,0,9.192-5.785,6.727-10.808l-31.321-63.808c3.395-4.884,7.578-8.914,12.957-11.562
			l35.056,64.581c1.359,2.504,3.937,3.923,6.599,3.923c5.605,0,9.321-6.04,6.585-11.08l-32.321-59.542
			c18.08,3.309,37.495,23.991,46.411,38.152c5.728,9.099,12.561,22.91,15.689,34.084c0.928,3.313,3.939,5.479,7.219,5.479
			c4.968,0,8.564-4.746,7.227-9.525c-2.952-10.543-7.939-21.002-11.833-28.286c9.258,0.766,16.635,7.654,20.362,16.325
			c10.564,24.574,2.426,48.475-14.994,68.776C362.978,316.71,332.488,307.47,334.591,307.93z M496.468,478.125
			c-1.567,2.675,0.658,0.582-75.039,1.297c-5.105,0-9.859-3.325-12.111-8.472l-64.283-146.928
			c0.454-0.112,29.764,1.576,53.098-25.22c3.371,6.013,92.547,165.086,98.372,175.475
			C497.305,475.702,497.01,477.199,496.468,478.125z"/>
	</g>
</g>
<g>
</g>
<g>
</g>
<g>
</g>
<g>
</g>
<g>
</g>
<g>
</g>
<g>
</g>
<g>
</g>
<g>
</g>
<g>
</g>
<g>
</g>
<g>
</g>
<g>
</g>
<g>
</g>
<g>
</g>
</svg>
